%TF.GenerationSoftware,KiCad,Pcbnew,9.0.0*%
%TF.CreationDate,2025-03-13T21:02:51+03:00*%
%TF.ProjectId,getting_started,67657474-696e-4675-9f73-746172746564,rev?*%
%TF.SameCoordinates,Original*%
%TF.FileFunction,Legend,Bot*%
%TF.FilePolarity,Positive*%
%FSLAX46Y46*%
G04 Gerber Fmt 4.6, Leading zero omitted, Abs format (unit mm)*
G04 Created by KiCad (PCBNEW 9.0.0) date 2025-03-13 21:02:51*
%MOMM*%
%LPD*%
G01*
G04 APERTURE LIST*
%ADD10C,0.150000*%
%ADD11C,0.120000*%
G04 APERTURE END LIST*
D10*
X134785714Y-42551009D02*
X134642857Y-42598628D01*
X134642857Y-42598628D02*
X134595238Y-42646247D01*
X134595238Y-42646247D02*
X134547619Y-42741485D01*
X134547619Y-42741485D02*
X134547619Y-42884342D01*
X134547619Y-42884342D02*
X134595238Y-42979580D01*
X134595238Y-42979580D02*
X134642857Y-43027200D01*
X134642857Y-43027200D02*
X134738095Y-43074819D01*
X134738095Y-43074819D02*
X135119047Y-43074819D01*
X135119047Y-43074819D02*
X135119047Y-42074819D01*
X135119047Y-42074819D02*
X134785714Y-42074819D01*
X134785714Y-42074819D02*
X134690476Y-42122438D01*
X134690476Y-42122438D02*
X134642857Y-42170057D01*
X134642857Y-42170057D02*
X134595238Y-42265295D01*
X134595238Y-42265295D02*
X134595238Y-42360533D01*
X134595238Y-42360533D02*
X134642857Y-42455771D01*
X134642857Y-42455771D02*
X134690476Y-42503390D01*
X134690476Y-42503390D02*
X134785714Y-42551009D01*
X134785714Y-42551009D02*
X135119047Y-42551009D01*
X134261904Y-42074819D02*
X133690476Y-42074819D01*
X133976190Y-43074819D02*
X133976190Y-42074819D01*
X132833333Y-43074819D02*
X133404761Y-43074819D01*
X133119047Y-43074819D02*
X133119047Y-42074819D01*
X133119047Y-42074819D02*
X133214285Y-42217676D01*
X133214285Y-42217676D02*
X133309523Y-42312914D01*
X133309523Y-42312914D02*
X133404761Y-42360533D01*
D11*
%TO.C,BT1*%
X148310000Y-31390000D02*
X144692000Y-31390000D01*
X148310000Y-33100000D02*
X148310000Y-31390000D01*
X148310000Y-36900000D02*
X148310000Y-38610000D01*
X144692000Y-38610000D02*
X148310000Y-38610000D01*
X141847300Y-26890000D02*
X126152700Y-26890000D01*
X137860000Y-43110000D02*
X141847300Y-43110000D01*
X135660000Y-40910000D02*
X137860000Y-43110000D01*
X132340000Y-40910000D02*
X135660000Y-40910000D01*
X132340000Y-40910000D02*
X130140000Y-43110000D01*
X126152700Y-43110000D02*
X130140000Y-43110000D01*
X123308000Y-31390000D02*
X119690000Y-31390000D01*
X119690000Y-33100000D02*
X119690000Y-31390000D01*
X119690000Y-36900000D02*
X119690000Y-38610000D01*
X119690000Y-38610000D02*
X123308000Y-38610000D01*
X141845371Y-26888211D02*
G75*
G02*
X144691999Y-31390000I-7845391J-8111799D01*
G01*
X144692000Y-38610000D02*
G75*
G02*
X141845371Y-43111789I-10691995J3609996D01*
G01*
X123308000Y-31390000D02*
G75*
G02*
X126154629Y-26888211I10692000J-3610000D01*
G01*
X126154629Y-43111789D02*
G75*
G02*
X123308000Y-38610000I7845391J8111801D01*
G01*
%TD*%
M02*
